<?xml version="1.0" encoding="utf-8"?>
<!-- Generator: Adobe Illustrator 16.0.4, SVG Export Plug-In . SVG Version: 6.00 Build 0)  -->
<!DOCTYPE svg PUBLIC "-//W3C//DTD SVG 1.1//EN" "http://www.w3.org/Graphics/SVG/1.1/DTD/svg11.dtd">
<svg version="1.1" id="レイヤー_1" xmlns="http://www.w3.org/2000/svg" xmlns:xlink="http://www.w3.org/1999/xlink" x="0px"
	 y="0px" width="564px" height="112px" viewBox="0 0 564 112" enable-background="new 0 0 564 112" xml:space="preserve">
<path fill="#1F2F54" d="M143.349,36.02c3.476-0.89,8.891-1.374,14.145-1.374c4.929,0,10.505,0.808,14.465,3.637
	c3.718,2.423,5.901,6.304,5.901,11.556c0,6.79-3.153,12.042-7.356,15.275c-4.445,3.475-10.829,5.092-17.456,5.092
	c-1.939,0-3.556-0.243-4.768-0.323l-3.718,19.558h-11.396L143.349,36.02z M150.057,60.346c1.294,0.243,2.506,0.404,4.526,0.404
	c6.951,0,11.557-4.444,11.557-9.941c0-5.172-3.717-6.869-8.243-6.869c-2.182,0-3.799,0.163-4.769,0.323L150.057,60.346z"/>
<path fill="#1F2F54" d="M177.536,89.441l4.525-23.518c1.05-5.98,1.617-12.608,2.021-16.003h10.021
	c-0.162,2.667-0.404,5.334-0.727,8.165h0.323c2.748-5.335,7.112-9.053,12.527-9.053c0.809,0,1.536,0.082,2.183,0.082l-2.264,11.395
	c-0.484-0.08-1.131-0.08-1.778-0.08c-7.353,0-10.911,6.547-12.365,14.306l-2.747,14.708H177.536z"/>
<path fill="#1F2F54" d="M225.381,90.331c-10.103,0-16.811-6.547-16.811-16.326c0-13.658,9.536-24.973,23.599-24.973
	c10.668,0,16.811,7.275,16.811,16.326c0,14.387-9.941,24.974-23.519,24.974H225.381z M226.916,81.44c6.304,0,9.94-9.294,9.94-16.002
	c0-3.718-1.616-7.517-6.223-7.517c-6.708,0-10.102,9.698-10.102,15.842c0,4.606,2.344,7.677,6.304,7.677H226.916z"/>
<polygon fill="#1F2F54" points="288.419,66.247 269.104,66.247 266.599,79.5 288.338,79.5 286.398,89.441 253.02,89.441 
	263.365,34.97 295.611,34.97 293.673,44.911 273.145,44.911 270.881,56.468 290.357,56.468 "/>
<path fill="#1F2F54" d="M294.238,89.441l5.012-26.67c0.97-5.011,1.616-9.294,2.102-12.851h10.264l-0.728,6.547h0.16
	c3.719-5.09,8.648-7.436,13.82-7.436c6.466,0,10.184,3.96,10.184,10.83c0,1.778-0.323,4.689-0.646,6.629l-4.364,22.951h-11.638
	l4.122-21.901c0.242-1.375,0.404-2.909,0.404-4.364c0-2.829-0.97-4.769-3.96-4.769c-3.799,0-8.163,4.769-9.86,13.497l-3.232,17.537
	H294.238z"/>
<path fill="#1F2F54" d="M342.325,94.937c2.182,1.293,6.949,2.183,10.345,2.183c5.817,0,10.102-2.587,11.799-10.507l0.647-3.395
	h-0.163c-3.07,4.041-6.627,5.899-11.313,5.899c-7.841,0-12.606-6.384-12.689-14.144c-0.08-13.011,9.294-25.943,26.508-25.943
	c5.578,0,12.303-2.818,16.749-7.265l-8.101,42.584c-1.373,7.273-3.637,13.738-8.323,17.537c-4.284,3.395-10.022,4.444-15.276,4.444
	c-5.333,0-10.182-0.969-12.93-2.505L342.325,94.937z M369.479,58.649c-0.89-0.405-2.586-0.728-4.203-0.728
	c-7.03,0-12.043,7.84-12.043,15.274c0,4.042,1.779,6.95,5.335,6.95c3.799,0,7.597-4.282,8.89-10.909L369.479,58.649z"/>
<path fill="#1F2F54" d="M384.834,89.441l7.517-39.521h11.557l-7.435,39.521H384.834z M399.544,44.748c-3.396,0-5.9-2.424-5.9-6.061
	c0-4.203,3.313-7.031,7.113-7.031c3.636,0,6.223,2.344,6.223,6.062c0,4.443-3.396,7.03-7.354,7.03H399.544z"/>
<path fill="#1F2F54" d="M406.251,89.441l5.012-26.67c0.97-5.011,1.616-9.294,2.101-12.851h10.265l-0.728,6.547h0.16
	c3.72-5.09,8.649-7.436,13.822-7.436c6.465,0,10.184,3.96,10.184,10.83c0,1.778-0.325,4.689-0.648,6.629l-4.364,22.951h-11.637
	l4.121-21.901c0.242-1.375,0.405-2.909,0.405-4.364c0-2.829-0.97-4.769-3.961-4.769c-3.799,0-8.163,4.769-9.859,13.497
	l-3.233,17.537H406.251z"/>
<path fill="#1F2F54" d="M484.808,87.178c-4.607,2.343-10.345,3.152-14.709,3.152c-11.314,0-17.135-6.386-17.135-16.729
	c0-12.042,8.729-24.57,23.034-24.57c8.001,0,13.739,4.527,13.739,11.881c0,10.022-9.779,13.658-25.619,13.254
	c0,1.132,0.402,2.911,1.212,4.041c1.534,2.021,4.202,3.071,7.597,3.071c4.283,0,7.92-0.969,11.072-2.504L484.808,87.178z
	 M478.827,60.832c0-1.939-1.617-3.313-4.283-3.313c-5.416,0-8.486,4.525-9.295,8.162c9.052,0.081,13.578-1.13,13.578-4.769V60.832z"
	/>
<path fill="#1F2F54" d="M525.297,87.178c-4.606,2.343-10.346,3.152-14.709,3.152c-11.314,0-17.135-6.386-17.135-16.729
	c0-12.042,8.729-24.57,23.034-24.57c8,0,13.738,4.527,13.738,11.881c0,10.022-9.778,13.658-25.619,13.254
	c0,1.132,0.404,2.911,1.213,4.041c1.535,2.021,4.201,3.071,7.597,3.071c4.283,0,7.919-0.969,11.071-2.504L525.297,87.178z
	 M519.316,60.832c0-1.939-1.617-3.313-4.284-3.313c-5.415,0-8.487,4.525-9.295,8.162c9.053,0.081,13.579-1.13,13.579-4.769V60.832z"
	/>
<path fill="#1F2F54" d="M532.65,89.441l4.525-23.518c1.051-5.98,1.617-12.608,2.021-16.003h10.022
	c-0.162,2.667-0.405,5.334-0.729,8.165h0.323c2.749-5.335,7.113-9.053,12.526-9.053c0.811,0,1.537,0.082,2.184,0.082l-2.263,11.395
	c-0.484-0.08-1.132-0.08-1.778-0.08c-7.355,0-10.91,6.547-12.366,14.306l-2.746,14.708H532.65z"/>
<path fill="#1F2F54" d="M65.927,34.325c1.007-1.006,2.242-1.514,3.703-1.514c1.461,0,2.709,0.508,3.74,1.514
	c1.033,1.007,1.547,2.242,1.547,3.704c0,1.411-0.514,2.648-1.547,3.703c-1.031,1.06-2.279,1.588-3.74,1.588
	c-1.412,0-2.635-0.528-3.666-1.588c-1.031-1.055-1.551-2.292-1.551-3.703C64.413,36.567,64.92,35.332,65.927,34.325"/>
<path fill="#1F2F54" d="M69.63,43.32c1.461,0,2.709-0.528,3.74-1.588c1.032-1.056,1.547-2.292,1.547-3.703
	c0-1.462-0.515-2.697-1.547-3.704c-1.031-1.006-2.279-1.514-3.74-1.514s-2.696,0.508-3.703,1.514
	c-1.007,1.007-1.514,2.242-1.514,3.704c0,1.411,0.52,2.647,1.551,3.703C66.995,42.792,68.218,43.32,69.63,43.32"/>
<polygon fill="#00A0E9" points="26.388,83.307 51.958,83.32 51.947,69.321 "/>
<path fill="#00A0E9" d="M68.955,4.32L41.21,28.658c-8.413,7.152-14.821,15.443-19.234,24.863
	c-4.407,9.425-6.613,19.627-6.613,30.609v27.283h42.48l-0.009-9.896H25.263V84.135c0-9.772,1.854-18.579,5.557-26.415
	c3.703-7.833,9.584-15.256,17.646-22.261l19.499-17.085l33.269,39.25c-5.189,4.738-9.154,7.849-11.9,9.334
	c-2.746,1.489-5.582,2.23-8.504,2.23c-5.442,0-10.458-2.927-16.506-9.126C62.31,58,48.822,40.9,48.822,40.9l-7.142,6.893
	l19.5,22.786v-0.036c5.139,5.291,11.793,7.935,19.954,7.935c7.054,0,13.504-2.517,19.346-7.558l14.585-12.547L68.955,4.32z"/>
<path fill="#1F2F54" d="M25.197,0.585l16.325,8.187l-10.968,9.756c-10.476,9.274-18.108,19.086-22.896,29.44
	C2.87,58.322,0.476,70.377,0.476,84.13v27.283h9.9V84.13c0-12.292,2.156-23.051,6.461-32.271
	c4.308-9.219,11.299-18.038,20.972-26.452L65.752,0.585H25.197z"/>
</svg>
